<svg width="193" height="193" viewBox="0 0 193 193" fill="none" xmlns="http://www.w3.org/2000/svg">
<rect width="193" height="193" rx="96.5" fill="white"/>
<g clip-path="url(#clip0_64_103)">
<path d="M107.358 60.0959C108.422 60.395 109.323 61.1042 109.864 62.0677C110.404 63.0311 110.54 64.1698 110.242 65.2334L91.7834 131.017C91.6356 131.544 91.3855 132.036 91.0474 132.467C90.7093 132.897 90.2897 133.256 89.8126 133.524C89.3356 133.793 88.8104 133.964 88.267 134.029C87.7236 134.094 87.1728 134.052 86.6459 133.904C86.1189 133.756 85.6263 133.506 85.196 133.168C84.7657 132.83 84.4062 132.411 84.1381 131.933C83.87 131.456 83.6984 130.931 83.6333 130.388C83.5681 129.845 83.6106 129.294 83.7583 128.767L102.217 62.9834C102.364 62.456 102.615 61.9628 102.953 61.5322C103.291 61.1015 103.711 60.7418 104.189 60.4736C104.666 60.2054 105.192 60.034 105.736 59.9692C106.28 59.9044 106.831 59.9474 107.358 60.0959ZM77.0292 76.3751C77.8103 77.1564 78.2491 78.216 78.2491 79.3209C78.2491 80.4257 77.8103 81.4854 77.0292 82.2667L62.3 97L77.0292 111.729C77.4163 112.116 77.7234 112.575 77.9331 113.081C78.1427 113.586 78.2507 114.128 78.2509 114.676C78.2511 115.223 78.1434 115.765 77.9342 116.271C77.7249 116.776 77.4181 117.236 77.0313 117.623C76.6444 118.01 76.1851 118.317 75.6795 118.527C75.174 118.736 74.6321 118.844 74.0848 118.845C73.5375 118.845 72.9956 118.737 72.4899 118.528C71.9842 118.319 71.5246 118.012 71.1375 117.625L53.4583 99.9459C52.6772 99.1645 52.2384 98.1049 52.2384 97C52.2384 95.8952 52.6772 94.8356 53.4583 94.0542L71.1375 76.3751C71.9189 75.5939 72.9785 75.1551 74.0833 75.1551C75.1882 75.1551 76.2478 75.5939 77.0292 76.3751ZM116.971 82.2667C116.573 81.8824 116.255 81.4226 116.037 80.9142C115.819 80.4059 115.704 79.8591 115.699 79.3059C115.694 78.7526 115.8 78.204 116.009 77.6919C116.219 77.1798 116.528 76.7146 116.919 76.3234C117.31 75.9322 117.776 75.6228 118.288 75.4133C118.8 75.2038 119.348 75.0984 119.902 75.1032C120.455 75.108 121.002 75.2229 121.51 75.4413C122.018 75.6597 122.478 75.9771 122.863 76.3751L140.542 94.0542C141.323 94.8356 141.762 95.8952 141.762 97C141.762 98.1049 141.323 99.1645 140.542 99.9459L122.863 117.625C122.081 118.406 121.021 118.845 119.915 118.845C118.81 118.844 117.75 118.405 116.969 117.623C116.187 116.841 115.749 115.781 115.749 114.676C115.75 113.57 116.189 112.51 116.971 111.729L131.7 97L116.971 82.2667Z" fill="#9E00FF"/>
</g>
<defs>
<clipPath id="clip0_64_103">
<rect width="100" height="100" fill="white" transform="translate(47 47)"/>
</clipPath>
</defs>
</svg>
