<svg width="193" height="193" viewBox="0 0 193 193" fill="none" xmlns="http://www.w3.org/2000/svg">
<rect width="193" height="193" rx="96.5" fill="white"/>
<path d="M73.6917 59.9626C73.6808 59.4731 73.5321 58.9967 73.2627 58.5878C72.9933 58.179 72.6142 57.8544 72.1687 57.6513C71.7233 57.4481 71.2296 57.3747 70.7443 57.4393C70.259 57.504 69.8017 57.7041 69.425 58.0168C64.4292 62.1626 61.3854 65.3334 59.625 68.2459C57.7667 71.3064 57.4167 73.9376 57.4167 76.6814C57.4167 79.7203 58.6239 82.6348 60.7727 84.7836C62.9216 86.9325 65.8361 88.1397 68.875 88.1397C71.9139 88.1397 74.8284 86.9325 76.9773 84.7836C79.1261 82.6348 80.3333 79.7203 80.3333 76.6814C80.3333 72.9418 78.4792 70.4189 77.0208 68.4376L76.5979 67.8584C75.0896 65.7668 73.775 63.6772 73.6917 59.9626ZM82.2375 68.7084C84.8971 67.4442 87.8053 66.7894 90.75 66.7918C100.977 66.7918 109.392 74.548 110.433 84.5001H101.688C98.2342 84.5001 94.9223 85.8719 92.4804 88.3138C90.0385 90.7557 88.6667 94.0676 88.6667 97.5209V106.267C87.2039 106.115 85.7629 105.799 84.3708 105.325C84.2685 107.101 84.124 108.875 83.9375 110.644C85.4625 111.077 87.0389 111.362 88.6667 111.498V119.396C88.6667 122.849 90.0385 126.161 92.4804 128.603C94.9223 131.045 98.2342 132.417 101.688 132.417H123.563C127.016 132.417 130.328 131.045 132.77 128.603C135.212 126.161 136.583 122.849 136.583 119.396V97.5209C136.583 94.0676 135.212 90.7557 132.77 88.3138C130.328 85.8719 127.016 84.5001 123.563 84.5001H115.665C114.606 71.6668 103.856 61.5834 90.7479 61.5834C86.7472 61.5775 82.8039 62.5358 79.2521 64.3772C79.4708 64.7147 79.7125 65.0584 79.9771 65.4251L80.3729 65.9605C80.8938 66.6584 81.5792 67.5772 82.2396 68.7105M115.554 89.7084H123.56C125.632 89.7084 127.62 90.5315 129.085 91.9967C130.55 93.4618 131.373 95.4489 131.373 97.5209V119.396C131.373 121.468 130.55 123.455 129.085 124.92C127.62 126.385 125.632 127.208 123.56 127.208H101.685C99.6134 127.208 97.6263 126.385 96.1612 124.92C94.696 123.455 93.8729 121.468 93.8729 119.396V111.39C99.3804 110.694 104.5 108.186 108.425 104.261C112.351 100.336 114.859 95.2159 115.554 89.7084ZM110.294 89.7084C109.633 93.8253 107.69 97.6286 104.741 100.577C101.793 103.525 97.9897 105.468 93.8729 106.129V97.5209C93.8729 95.4489 94.696 93.4618 96.1612 91.9967C97.6263 90.5315 99.6134 89.7084 101.685 89.7084H110.294ZM59.1479 90.0564C59.2688 89.7744 59.3993 89.4939 59.5396 89.2147C62.2352 91.2279 65.5106 92.3134 68.875 92.3084C72.2423 92.3129 75.5202 91.2252 78.2167 89.2084C78.3583 89.489 78.4903 89.773 78.6125 90.0605C80.0708 93.4959 80.3333 97.6959 80.3333 101.056C80.3333 106.556 79.4833 114.973 77.925 122.056C77.1479 125.583 76.1646 128.931 74.9458 131.458C74.3417 132.715 73.6104 133.911 72.7104 134.825C71.8042 135.746 70.5188 136.583 68.8833 136.583C67.2479 136.583 65.9625 135.748 65.0563 134.827C64.1563 133.911 63.425 132.717 62.8188 131.461C61.5979 128.933 60.6104 125.586 59.8333 122.058C58.2708 114.975 57.4167 106.558 57.4167 101.056C57.4167 97.6939 57.6833 93.4939 59.1479 90.0564Z" fill="#9E00FF"/>
</svg>
