<svg width="193" height="193" viewBox="0 0 193 193" fill="none" xmlns="http://www.w3.org/2000/svg">
<rect width="193" height="193" rx="96.5" fill="white"/>
<path fill-rule="evenodd" clip-rule="evenodd" d="M68.875 127.938C68.1291 127.938 67.4137 127.641 66.8863 127.114C66.3588 126.586 66.0625 125.871 66.0625 125.125V68.875C66.0625 68.1291 66.3588 67.4137 66.8863 66.8863C67.4137 66.3588 68.1291 66.0625 68.875 66.0625H120.906C122.025 66.0625 123.098 65.618 123.889 64.8269C124.681 64.0357 125.125 62.9626 125.125 61.8438C125.125 60.7249 124.681 59.6518 123.889 58.8606C123.098 58.0695 122.025 57.625 120.906 57.625H68.875C65.8913 57.625 63.0298 58.8103 60.92 60.92C58.8103 63.0298 57.625 65.8913 57.625 68.875V125.125C57.625 128.109 58.8103 130.97 60.92 133.08C63.0298 135.19 65.8913 136.375 68.875 136.375H125.125C128.109 136.375 130.97 135.19 133.08 133.08C135.19 130.97 136.375 128.109 136.375 125.125V106.844C136.375 105.725 135.931 104.652 135.139 103.861C134.348 103.069 133.275 102.625 132.156 102.625C131.037 102.625 129.964 103.069 129.173 103.861C128.382 104.652 127.938 105.725 127.938 106.844V125.125C127.938 125.871 127.641 126.586 127.114 127.114C126.586 127.641 125.871 127.938 125.125 127.938H68.875ZM140.763 78.325C141.508 77.5253 141.913 76.4675 141.894 75.3746C141.875 74.2816 141.432 73.2388 140.659 72.4659C139.886 71.6929 138.843 71.2502 137.75 71.2309C136.658 71.2116 135.6 71.6173 134.8 72.3625L103.536 103.621L93.0006 92.7306C92.6162 92.329 92.1562 92.0073 91.6471 91.784C91.138 91.5607 90.5897 91.4402 90.0339 91.4295C89.478 91.4189 88.9255 91.5181 88.4082 91.7217C87.8908 91.9252 87.4188 92.229 87.0193 92.6156C86.6197 93.0022 86.3005 93.4639 86.08 93.9743C85.8595 94.4846 85.7421 95.0335 85.7344 95.5894C85.7267 96.1453 85.829 96.6973 86.0354 97.2135C86.2418 97.7297 86.5481 98.2001 86.9369 98.5975L100.454 112.57C100.843 112.973 101.308 113.295 101.823 113.517C102.337 113.738 102.891 113.855 103.451 113.86C104.012 113.866 104.567 113.759 105.086 113.547C105.605 113.335 106.076 113.022 106.473 112.626L140.763 78.325Z" fill="#9E00FF"/>
</svg>
